<?xml version="1.0" encoding="UTF-8"?>
<svg xmlns="http://www.w3.org/2000/svg" viewBox="0 0 920 420" font-family="Arial, Helvetica, sans-serif">
  <defs>
    <filter id="shadow"><feDropShadow dx="0" dy="3" stdDeviation="5" flood-opacity="0.12"/></filter>
    <marker id="arrow" markerWidth="10" markerHeight="10" refX="9" refY="3" orient="auto"><path d="M0,0 L9,3 L0,6 Z" fill="#94a3b8"/></marker>
  </defs>
  <rect width="920" height="420" fill="#fafafa"/>
  <text x="460" y="40" text-anchor="middle" font-size="22" font-weight="700" fill="#0f172a">Stack Frontend - Dashboard</text>
  <text x="460" y="64" text-anchor="middle" font-size="13" fill="#64748b">Next.js 15 | React 19 | Tailwind CSS | Patron BFF</text>

  <!-- Browser -->
  <g filter="url(#shadow)">
    <rect x="60" y="90" width="220" height="280" rx="14" fill="#fff" stroke="#e2e8f0" stroke-width="2"/>
    <rect x="60" y="90" width="220" height="36" rx="14" fill="#f1f5f9"/>
    <circle cx="82" cy="108" r="5" fill="#ef4444"/><circle cx="98" cy="108" r="5" fill="#eab308"/><circle cx="114" cy="108" r="5" fill="#22c55e"/>
    <text x="170" y="112" text-anchor="middle" font-size="11" fill="#64748b">Dashboard :3000</text>
    <rect x="80" y="140" width="180" height="28" rx="6" fill="#000"/>
    <text x="170" y="159" text-anchor="middle" font-size="11" font-weight="600" fill="#fff">Next.js 15</text>
    <rect x="80" y="178" width="180" height="28" rx="6" fill="#61dafb"/>
    <text x="170" y="197" text-anchor="middle" font-size="11" font-weight="600" fill="#0f172a">React 19</text>
    <rect x="80" y="216" width="180" height="28" rx="6" fill="#06b6d4"/>
    <text x="170" y="235" text-anchor="middle" font-size="11" font-weight="600" fill="#fff">Tailwind CSS 3.4</text>
    <rect x="80" y="254" width="180" height="28" rx="6" fill="#3178c6"/>
    <text x="170" y="273" text-anchor="middle" font-size="11" font-weight="600" fill="#fff">TypeScript 5.7</text>
    <text x="170" y="310" text-anchor="middle" font-size="10" fill="#64748b">App Router | Client Components</text>
    <text x="170" y="330" text-anchor="middle" font-size="10" fill="#64748b">Hooks | Modales | KPIs</text>
    <text x="170" y="350" text-anchor="middle" font-size="10" fill="#64748b">Sin dependencia de packages internos</text>
  </g>

  <!-- BFF -->
  <g filter="url(#shadow)">
    <rect x="340" y="140" width="240" height="180" rx="14" fill="#eff6ff" stroke="#2563eb" stroke-width="2"/>
    <text x="460" y="172" text-anchor="middle" font-size="14" font-weight="700" fill="#1e40af">BFF Proxy</text>
    <text x="460" y="192" text-anchor="middle" font-size="11" fill="#3b82f6">/app/api/** Route Handlers</text>
    <rect x="370" y="210" width="180" height="32" rx="6" fill="#fff" stroke="#93c5fd"/>
    <text x="460" y="231" text-anchor="middle" font-size="10" fill="#1e3a8a">/api/invoices</text>
    <rect x="370" y="252" width="180" height="32" rx="6" fill="#fff" stroke="#93c5fd"/>
    <text x="460" y="273" text-anchor="middle" font-size="10" fill="#1e3a8a">/api/clients</text>
    <rect x="370" y="294" width="180" height="32" rx="6" fill="#fff" stroke="#93c5fd"/>
    <text x="460" y="315" text-anchor="middle" font-size="10" fill="#1e3a8a">/api/reminders/process</text>
  </g>

  <!-- API -->
  <g filter="url(#shadow)">
    <rect x="640" y="140" width="220" height="180" rx="14" fill="#f0fdf4" stroke="#16a34a" stroke-width="2"/>
    <text x="750" y="172" text-anchor="middle" font-size="14" font-weight="700" fill="#166534">Express API</text>
    <text x="750" y="192" text-anchor="middle" font-size="11" fill="#15803d">:4000 | Use Cases</text>
    <rect x="670" y="220" width="160" height="80" rx="8" fill="#fff" stroke="#86efac"/>
    <text x="750" y="252" text-anchor="middle" font-size="11" fill="#14532d">MongoDB</text>
    <text x="750" y="272" text-anchor="middle" font-size="11" fill="#14532d">Gmail (worker)</text>
  </g>

  <line x1="280" y1="230" x2="335" y2="230" stroke="#64748b" stroke-width="2" marker-end="url(#arrow)"/>
  <text x="307" y="218" text-anchor="middle" font-size="9" fill="#64748b">fetch</text>
  <line x1="580" y1="230" x2="635" y2="230" stroke="#64748b" stroke-width="2" marker-end="url(#arrow)"/>
  <text x="607" y="218" text-anchor="middle" font-size="9" fill="#64748b">API_URL</text>

  <rect x="180" y="385" width="560" height="24" rx="6" fill="#fef3c7" stroke="#f59e0b"/>
  <text x="460" y="401" text-anchor="middle" font-size="11" fill="#92400e">API_URL server-side | Sin CORS | UI delgada (presentacion)</text>
</svg>
