<?xml version="1.0" encoding="UTF-8"?>
<svg xmlns="http://www.w3.org/2000/svg" viewBox="0 0 920 400" font-family="Arial, Helvetica, sans-serif">
  <defs>
    <filter id="shadow"><feDropShadow dx="0" dy="3" stdDeviation="4" flood-opacity="0.15"/></filter>
    <marker id="arrow" markerWidth="8" markerHeight="8" refX="7" refY="3" orient="auto"><path d="M0,0 L8,3 L0,6 Z" fill="#64748b"/></marker>
  </defs>
  <rect width="920" height="400" fill="#f1f5f9"/>
  <text x="460" y="38" text-anchor="middle" font-size="22" font-weight="700" fill="#0f172a">Despliegue - Docker Swarm + Traefik</text>

  <g filter="url(#shadow)">
    <rect x="360" y="70" width="200" height="56" rx="10" fill="#0ea5e9" stroke="#0284c7" stroke-width="2"/>
    <text x="460" y="104" text-anchor="middle" font-size="15" font-weight="700" fill="#fff">Traefik Proxy</text>
  </g>

  <line x1="460" y1="126" x2="460" y2="150" stroke="#64748b" stroke-width="2" marker-end="url(#arrow)"/>

  <g filter="url(#shadow)">
    <rect x="80" y="160" width="760" height="200" rx="14" fill="#fff" stroke="#cbd5e1" stroke-width="2" stroke-dasharray="6 3"/>
    <text x="110" y="188" font-size="12" font-weight="700" fill="#64748b">DOCKER SWARM STACK</text>

    <rect x="110" y="200" width="140" height="60" rx="8" fill="#dbeafe" stroke="#2563eb"/>
    <text x="180" y="228" text-anchor="middle" font-size="12" font-weight="600" fill="#1e40af">Frontend</text>
    <text x="180" y="246" text-anchor="middle" font-size="10" fill="#3b82f6">Next.js</text>

    <rect x="280" y="200" width="120" height="60" rx="8" fill="#d1fae5" stroke="#059669"/>
    <text x="340" y="228" text-anchor="middle" font-size="12" font-weight="600" fill="#065f46">API x N</text>
    <text x="340" y="246" text-anchor="middle" font-size="10" fill="#059669">.NET API</text>

    <rect x="430" y="200" width="120" height="60" rx="8" fill="#d1fae5" stroke="#059669"/>
    <text x="490" y="228" text-anchor="middle" font-size="12" font-weight="600" fill="#065f46">API x N</text>
    <text x="490" y="246" text-anchor="middle" font-size="10" fill="#059669">Replica</text>

    <rect x="580" y="200" width="120" height="60" rx="8" fill="#fef3c7" stroke="#d97706"/>
    <text x="640" y="228" text-anchor="middle" font-size="12" font-weight="600" fill="#92400e">Worker x1</text>
    <text x="640" y="246" text-anchor="middle" font-size="10" fill="#b45309">NCrontab</text>

    <rect x="730" y="200" width="90" height="60" rx="8" fill="#dcfce7" stroke="#16a34a"/>
    <text x="775" y="228" text-anchor="middle" font-size="12" font-weight="600" fill="#166534">Mongo</text>
    <text x="775" y="246" text-anchor="middle" font-size="10" fill="#15803d">DB</text>

    <line x1="340" y1="260" x2="730" y2="260" stroke="#94a3b8" stroke-width="1.5" stroke-dasharray="4 3"/>
    <line x1="490" y1="260" x2="730" y2="260" stroke="#94a3b8" stroke-width="1.5" stroke-dasharray="4 3"/>
    <line x1="640" y1="260" x2="730" y2="260" stroke="#94a3b8" stroke-width="1.5" stroke-dasharray="4 3"/>
  </g>

  <text x="460" y="385" text-anchor="middle" font-size="11" fill="#64748b">TLS en Traefik | API stateless escalable | Worker 1 replica (sin lock distribuido)</text>
</svg>
