<?xml version="1.0" encoding="UTF-8"?>
<svg xmlns="http://www.w3.org/2000/svg" viewBox="0 0 880 360" font-family="Arial, Helvetica, sans-serif">
  <defs>
    <filter id="shadow"><feDropShadow dx="0" dy="2" stdDeviation="3" flood-opacity="0.12"/></filter>
  </defs>
  <rect width="880" height="360" fill="#fafafa"/>
  <text x="440" y="34" text-anchor="middle" font-size="20" font-weight="700" fill="#0f172a">Ports &amp; Adapters - Hexagonal</text>

  <polygon points="440,170 520,210 440,250 360,210" fill="#ede9fe" stroke="#7c3aed" stroke-width="3" filter="url(#shadow)"/>
  <text x="440" y="205" text-anchor="middle" font-size="11" font-weight="700" fill="#5b21b6">USE CASES</text>
  <text x="440" y="220" text-anchor="middle" font-size="9" fill="#6d28d9">+ Entities</text>
  <text x="440" y="235" text-anchor="middle" font-size="8" fill="#7c3aed">Ports</text>

  <g filter="url(#shadow)">
    <rect x="60" y="80" width="140" height="50" rx="8" fill="#dbeafe" stroke="#2563eb"/>
    <text x="130" y="110" text-anchor="middle" font-size="12" fill="#1e40af">ASP.NET API</text>
  </g>
  <g filter="url(#shadow)">
    <rect x="60" y="280" width="140" height="50" rx="8" fill="#dbeafe" stroke="#2563eb"/>
    <text x="130" y="310" text-anchor="middle" font-size="12" fill="#1e40af">Worker Cron</text>
  </g>
  <text x="130" y="60" text-anchor="middle" font-size="10" font-weight="600" fill="#64748b">Driving Adapters</text>

  <g filter="url(#shadow)">
    <rect x="680" y="60" width="160" height="50" rx="8" fill="#ffedd5" stroke="#ea580c"/>
    <text x="760" y="90" text-anchor="middle" font-size="11" fill="#9a3412">Mongo Repositories</text>
  </g>
  <g filter="url(#shadow)">
    <rect x="680" y="155" width="160" height="50" rx="8" fill="#ffedd5" stroke="#ea580c"/>
    <text x="760" y="185" text-anchor="middle" font-size="11" fill="#9a3412">Gmail / Mock Email</text>
  </g>
  <g filter="url(#shadow)">
    <rect x="680" y="250" width="160" height="50" rx="8" fill="#ffedd5" stroke="#ea580c"/>
    <text x="760" y="280" text-anchor="middle" font-size="11" fill="#9a3412">Serilog Logger</text>
  </g>
  <text x="760" y="330" text-anchor="middle" font-size="10" font-weight="600" fill="#64748b">Driven Adapters</text>

  <line x1="200" y1="105" x2="360" y2="190" stroke="#64748b" stroke-width="2"/>
  <line x1="200" y1="305" x2="360" y2="230" stroke="#64748b" stroke-width="2"/>
  <line x1="520" y1="200" x2="680" y2="85" stroke="#64748b" stroke-width="2" stroke-dasharray="5 3"/>
  <line x1="520" y1="210" x2="680" y2="180" stroke="#64748b" stroke-width="2" stroke-dasharray="5 3"/>
  <line x1="520" y1="220" x2="680" y2="275" stroke="#64748b" stroke-width="2" stroke-dasharray="5 3"/>
  <text x="600" y="170" font-size="9" fill="#64748b">implements</text>
</svg>
