<?xml version="1.0" encoding="UTF-8"?>
<svg xmlns="http://www.w3.org/2000/svg" viewBox="0 0 720 320" font-family="Arial, Helvetica, sans-serif">
  <defs><filter id="s"><feDropShadow dx="0" dy="2" stdDeviation="3" flood-opacity="0.12"/></filter></defs>
  <rect width="720" height="320" fill="#f8fafc"/>
  <text x="360" y="32" text-anchor="middle" font-size="20" font-weight="700" fill="#0f172a">Modelo de datos - MongoDB</text>
  <g filter="url(#s)">
    <rect x="80" y="70" width="240" height="200" rx="10" fill="#dbeafe" stroke="#2563eb" stroke-width="2"/>
    <rect x="80" y="70" width="240" height="36" rx="10" fill="#2563eb"/>
    <text x="200" y="94" text-anchor="middle" font-size="14" font-weight="700" fill="#fff">Client</text>
    <text x="100" y="130" font-size="12" fill="#1e3a8a">clientId</text><text x="280" y="130" text-anchor="end" font-size="11" fill="#64748b">PK</text>
    <line x1="90" y1="140" x2="310" y2="140" stroke="#93c5fd"/>
    <text x="100" y="165" font-size="12" fill="#1e3a8a">name</text><text x="280" y="165" text-anchor="end" font-size="11" fill="#64748b">string</text>
    <line x1="90" y1="175" x2="310" y2="175" stroke="#93c5fd"/>
    <text x="100" y="200" font-size="12" fill="#1e3a8a">email</text><text x="280" y="200" text-anchor="end" font-size="11" fill="#64748b">string UK</text>
    <text x="200" y="245" text-anchor="middle" font-size="10" fill="#3b82f6">Fuente de email de recordatorios</text>
  </g>
  <g filter="url(#s)">
    <rect x="400" y="70" width="260" height="200" rx="10" fill="#d1fae5" stroke="#059669" stroke-width="2"/>
    <rect x="400" y="70" width="260" height="36" rx="10" fill="#059669"/>
    <text x="530" y="94" text-anchor="middle" font-size="14" font-weight="700" fill="#fff">Invoice</text>
    <text x="420" y="125" font-size="11" fill="#064e3b">_id</text><text x="640" y="125" text-anchor="end" font-size="10" fill="#64748b">ObjectId PK</text>
    <text x="420" y="148" font-size="11" fill="#064e3b">clientId</text><text x="640" y="148" text-anchor="end" font-size="10" fill="#64748b">FK</text>
    <text x="420" y="171" font-size="11" fill="#064e3b">invoiceNumber</text><text x="640" y="171" text-anchor="end" font-size="10" fill="#64748b">UK</text>
    <text x="420" y="194" font-size="11" fill="#064e3b">concept | amount | dueDate</text>
    <text x="420" y="217" font-size="11" fill="#064e3b">status</text><text x="640" y="217" text-anchor="end" font-size="10" fill="#64748b">enum idx</text>
  </g>
  <line x1="320" y1="170" x2="395" y2="170" stroke="#475569" stroke-width="2"/>
  <text x="357" y="158" text-anchor="middle" font-size="11" fill="#475569">1:N</text>
  <text x="360" y="300" text-anchor="middle" font-size="11" fill="#64748b">IIIndices: status, clientId, status+dueDate, invoiceNumber unique</text>
</svg>
